<svg width="28" height="28" viewBox="0 0 28 28" fill="none" xmlns="http://www.w3.org/2000/svg">
<path fill-rule="evenodd" clip-rule="evenodd" d="M7 18.0731V20.9941L0 13.9941L1.46 12.5341L7 18.0751V18.0731ZM9.921 20.9941H7L14 27.9941L15.46 26.5341L9.921 20.9941ZM26.535 15.4561L27.996 13.9941L13.996 -0.00585938L12.538 1.46014L18.077 6.99814H14.73L10.864 3.14014L9.404 4.60014L11.809 7.00414H10.129V17.8701H20.994V16.1901L23.399 18.5941L24.859 17.1341L20.994 13.2681V9.92114L26.535 15.4561ZM7.73 6.27014L6.265 7.73214L7.833 9.29814L9.294 7.83814L7.73 6.27014ZM20.162 18.7021L18.702 20.1641L20.268 21.7321L21.73 20.2701L20.162 18.7021ZM4.596 9.40414L3.134 10.8661L7 14.7321V11.8091L4.596 9.40414ZM16.192 21.0001H13.268L17.134 24.8661L18.596 23.4041L16.192 21.0001Z" fill="#FF6363"/>
</svg>
